REM DIRINDEX 1\2,1\3,1\4,1\6,1\5\7,1\5\8
REM DIRNAME cjc114,folder01,folder02,folder03,folder04,folder05,folder06,folder07
TITLE ""
FILE "DB4500_5th_1A_04.mp3" MP3
  TRACK 01 AUDIO
    TITLE "6:cjc114_0001"
    INDEX 01 00:00:00
  TRACK 02 AUDIO
    TITLE "0:"
    INDEX 01 00:01:36
  TRACK 03 AUDIO
    TITLE "2:cjc114_0002"
    INDEX 01 00:02:18
  TRACK 04 AUDIO
    TITLE "0:"
    INDEX 01 00:03:19
  TRACK 05 AUDIO
    TITLE "3:cjc114_0003"
    INDEX 01 00:03:51
  TRACK 06 AUDIO
    TITLE "0:"
    INDEX 01 00:04:58
  TRACK 07 AUDIO
    TITLE "4:cjc114_0004"
    INDEX 01 00:05:10
  TRACK 08 AUDIO
    TITLE "0:"
    INDEX 01 00:08:36
  TRACK 09 AUDIO
    TITLE "2:cjc114_0005"
    INDEX 01 00:09:12
  TRACK 10 AUDIO
    TITLE "0:"
    INDEX 01 00:10:27
  TRACK 11 AUDIO
    TITLE "3:cjc114_0006"
    INDEX 01 00:10:57
  TRACK 12 AUDIO
    TITLE "0:"
    INDEX 01 00:11:62
  TRACK 13 AUDIO
    TITLE "4:cjc114_0007"
    INDEX 01 00:12:14
  TRACK 14 AUDIO
    TITLE "0:"
    INDEX 01 00:16:08
  TRACK 15 AUDIO
    TITLE "2:cjc114_0008"
    INDEX 01 00:16:61
  TRACK 16 AUDIO
    TITLE "0:"
    INDEX 01 00:17:69
  TRACK 17 AUDIO
    TITLE "3:cjc114_0009"
    INDEX 01 00:18:17
  TRACK 18 AUDIO
    TITLE "0:"
    INDEX 01 00:19:11
  TRACK 19 AUDIO
    TITLE "4:cjc114_0010"
    INDEX 01 00:19:38
  TRACK 20 AUDIO
    TITLE "0:"
    INDEX 01 00:22:25
  TRACK 21 AUDIO
    TITLE "4:cjc114_0011"
    INDEX 01 00:22:58
  TRACK 22 AUDIO
    TITLE "0:"
    INDEX 01 00:25:03
  TRACK 23 AUDIO
    TITLE "2:cjc114_0012"
    INDEX 01 00:25:56
  TRACK 24 AUDIO
    TITLE "0:"
    INDEX 01 00:26:58
  TRACK 25 AUDIO
    TITLE "3:cjc114_0013"
    INDEX 01 00:27:10
  TRACK 26 AUDIO
    TITLE "0:"
    INDEX 01 00:28:27
  TRACK 27 AUDIO
    TITLE "4:cjc114_0014"
    INDEX 01 00:28:55
  TRACK 28 AUDIO
    TITLE "0:"
    INDEX 01 00:31:61
  TRACK 29 AUDIO
    TITLE "2:cjc114_0015"
    INDEX 01 00:32:41
  TRACK 30 AUDIO
    TITLE "0:"
    INDEX 01 00:33:48
  TRACK 31 AUDIO
    TITLE "3:cjc114_0016"
    INDEX 01 00:34:00
  TRACK 32 AUDIO
    TITLE "0:"
    INDEX 01 00:35:08
  TRACK 33 AUDIO
    TITLE "4:cjc114_0017"
    INDEX 01 00:35:35
  TRACK 34 AUDIO
    TITLE "0:"
    INDEX 01 00:38:43
  TRACK 35 AUDIO
    TITLE "2:cjc114_0018"
    INDEX 01 00:39:23
  TRACK 36 AUDIO
    TITLE "0:"
    INDEX 01 00:40:36
  TRACK 37 AUDIO
    TITLE "3:cjc114_0019"
    INDEX 01 00:40:64
  TRACK 38 AUDIO
    TITLE "0:"
    INDEX 01 00:41:69
  TRACK 39 AUDIO
    TITLE "4:cjc114_0020"
    INDEX 01 00:42:23
  TRACK 40 AUDIO
    TITLE "0:"
    INDEX 01 00:46:06
  TRACK 41 AUDIO
    TITLE "4:cjc114_0021"
    INDEX 01 00:46:66
  TRACK 42 AUDIO
    TITLE "0:"
    INDEX 01 00:50:09
  TRACK 43 AUDIO
    TITLE "2:cjc114_0022"
    INDEX 01 00:50:62
  TRACK 44 AUDIO
    TITLE "0:"
    INDEX 01 00:51:71
  TRACK 45 AUDIO
    TITLE "3:cjc114_0023"
    INDEX 01 00:52:24
  TRACK 46 AUDIO
    TITLE "0:"
    INDEX 01 00:53:47
  TRACK 47 AUDIO
    TITLE "4:cjc114_0024"
    INDEX 01 00:54:01
  TRACK 48 AUDIO
    TITLE "0:"
    INDEX 01 00:56:63
  TRACK 49 AUDIO
    TITLE "2:cjc114_0025"
    INDEX 01 00:57:39
  TRACK 50 AUDIO
    TITLE "0:"
    INDEX 01 00:58:48
  TRACK 51 AUDIO
    TITLE "3:cjc114_0026"
    INDEX 01 00:59:00
  TRACK 52 AUDIO
    TITLE "0:"
    INDEX 01 01:00:13
  TRACK 53 AUDIO
    TITLE "4:cjc114_0027"
    INDEX 01 01:00:43
  TRACK 54 AUDIO
    TITLE "0:"
    INDEX 01 01:03:24
  TRACK 55 AUDIO
    TITLE "2:cjc114_0028"
    INDEX 01 01:04:01
  TRACK 56 AUDIO
    TITLE "0:"
    INDEX 01 01:05:11
  TRACK 57 AUDIO
    TITLE "3:cjc114_0029"
    INDEX 01 01:05:38
  TRACK 58 AUDIO
    TITLE "0:"
    INDEX 01 01:06:59
  TRACK 59 AUDIO
    TITLE "4:cjc114_0030"
    INDEX 01 01:07:12
  TRACK 60 AUDIO
    TITLE "0:"
    INDEX 01 01:11:37
  TRACK 61 AUDIO
    TITLE "2:cjc114_0031"
    INDEX 01 01:12:15
  TRACK 62 AUDIO
    TITLE "0:"
    INDEX 01 01:13:24
  TRACK 63 AUDIO
    TITLE "3:cjc114_0032"
    INDEX 01 01:13:53
  TRACK 64 AUDIO
    TITLE "0:"
    INDEX 01 01:15:17
  TRACK 65 AUDIO
    TITLE "4:cjc114_0033"
    INDEX 01 01:15:42
  TRACK 66 AUDIO
    TITLE "0:"
    INDEX 01 01:18:23
  TRACK 67 AUDIO
    TITLE "2:cjc114_0034"
    INDEX 01 01:19:01
  TRACK 68 AUDIO
    TITLE "0:"
    INDEX 01 01:20:06
  TRACK 69 AUDIO
    TITLE "3:cjc114_0035"
    INDEX 01 01:20:36
  TRACK 70 AUDIO
    TITLE "0:"
    INDEX 01 01:21:61
  TRACK 71 AUDIO
    TITLE "4:cjc114_0036"
    INDEX 01 01:22:13
  TRACK 72 AUDIO
    TITLE "0:"
    INDEX 01 01:25:27
  TRACK 73 AUDIO
    TITLE "2:cjc114_0037"
    INDEX 01 01:26:05
  TRACK 74 AUDIO
    TITLE "0:"
    INDEX 01 01:27:04
  TRACK 75 AUDIO
    TITLE "3:cjc114_0038"
    INDEX 01 01:27:32
  TRACK 76 AUDIO
    TITLE "0:"
    INDEX 01 01:28:35
  TRACK 77 AUDIO
    TITLE "4:cjc114_0039"
    INDEX 01 01:28:63
  TRACK 78 AUDIO
    TITLE "0:"
    INDEX 01 01:33:05
